<svg width="1778" height="380" viewBox="0 0 1778 380" fill="none" xmlns="http://www.w3.org/2000/svg">
<path fill-rule="evenodd" clip-rule="evenodd" d="M0 285L74.0833 253.333C148.167 221.667 296.333 158.333 444.5 166.25C592.667 174.167 740.833 253.333 889 253.333C1037.17 253.333 1185.33 174.167 1333.5 118.75C1481.67 63.3333 1629.83 31.6667 1703.92 15.8333L1778 0V380H1703.92C1629.83 380 1481.67 380 1333.5 380C1185.33 380 1037.17 380 889 380C740.833 380 592.667 380 444.5 380C296.333 380 148.167 380 74.0833 380H0V285Z" fill="#FDC435"/>
</svg>
